<?xml version="1.0" encoding="UTF-8" standalone="no"?>
<svg
   xmlns:dc="http://purl.org/dc/elements/1.1/"
   xmlns:cc="http://creativecommons.org/ns#"
   xmlns:rdf="http://www.w3.org/1999/02/22-rdf-syntax-ns#"
   xmlns:svg="http://www.w3.org/2000/svg"
   xmlns="http://www.w3.org/2000/svg"
   xmlns:sodipodi="http://sodipodi.sourceforge.net/DTD/sodipodi-0.dtd"
   xmlns:inkscape="http://www.inkscape.org/namespaces/inkscape"
   version="1.1"
   width="24"
   height="24"
   viewBox="0 0 24 24"
   id="svg4"
   sodipodi:docname="restart.svg"
   inkscape:version="1.0.2 (e86c870879, 2021-01-15, custom)">
  <metadata
     id="metadata10">
    <rdf:RDF>
      <cc:Work
         rdf:about="">
        <dc:format>image/svg+xml</dc:format>
        <dc:type
           rdf:resource="http://purl.org/dc/dcmitype/StillImage" />
      </cc:Work>
    </rdf:RDF>
  </metadata>
  <defs
     id="defs8" />
  <sodipodi:namedview
     pagecolor="#ffffff"
     bordercolor="#666666"
     borderopacity="1"
     objecttolerance="10"
     gridtolerance="10"
     guidetolerance="10"
     inkscape:pageopacity="0"
     inkscape:pageshadow="2"
     inkscape:window-width="1916"
     inkscape:window-height="1025"
     id="namedview6"
     showgrid="false"
     inkscape:zoom="29.791667"
     inkscape:cx="12"
     inkscape:cy="12"
     inkscape:window-x="0"
     inkscape:window-y="0"
     inkscape:window-maximized="1"
     inkscape:current-layer="svg4"
     inkscape:document-rotation="0" />
  <path
     d="M12,4C14.1,4 16.1,4.8 17.6,6.3C20.7,9.4 20.7,14.5 17.6,17.6C15.8,19.5 13.3,20.2 10.9,19.9L11.4,17.9C13.1,18.1 14.9,17.5 16.2,16.2C18.5,13.9 18.5,10.1 16.2,7.7C15.1,6.6 13.5,6 12,6V10.6L7,5.6L12,0.6V4M6.3,17.6C3.7,15 3.3,11 5.1,7.9L6.6,9.4C5.5,11.6 5.9,14.4 7.8,16.2C8.3,16.7 8.9,17.1 9.6,17.4L9,19.4C8,19 7.1,18.4 6.3,17.6Z"
     id="path2"
     style="fill:#eceff4;fill-opacity:1" />
</svg>
